PathFileType	4	(X/Y/Z) abd_0kg_3.trc																										
DataRate	CameraRate	NumFrames	NumMarkers	Units	OrigDataRate	OrigDataStartFrame	OrigNumFrames																					
100	100	19	9	mm	100	394	787																					
Frame#	Time	gu			centelbow			EpL			centpxt8			centijc7			ij			ts			aa			ai		
		X1	Y1	Z1	X2	Y2	Z2	X3	Y3	Z3	X4	Y4	Z4	X5	Y5	Z5	X6	Y6	Z6	X7	Y7	Z7	X8	Y8	Z8	X9	Y9	Z9  
393	3.93	-113.922	66.208	97.543	-63.445	286.866	196.268	-83.307	297.3	173.115	-46.816	-153.158	-8.669	-46.816	31.938	-8.669	0	0	0	-146.847	-19.89	46.216	-156.587	89.153	93.539	-147.031	-60.251	152.313
394	3.94	-113.612	66.007	97.426	-64.127	286.462	197.102	-83.911	296.923	173.894	-46.816	-153.158	-8.669	-46.816	31.938	-8.669	0	0	0	-146.18	-20.349	46.107	-156.425	88.612	93.514	-146.66	-60.829	152.158
395	3.95	-113.426	66.099	97.247	-65.271	286.381	197.95	-84.967	296.852	174.672	-46.816	-153.158	-8.669	-46.816	31.938	-8.669	0	0	0	-145.685	-20.611	46.153	-156.441	88.291	93.581	-146.443	-61.153	152.179
396	3.96	-113.601	66.342	97.175	-66.962	286.501	198.858	-86.559	296.964	175.493	-46.816	-153.158	-8.669	-46.816	31.938	-8.669	0	0	0	-145.371	-20.473	46.167	-156.667	88.385	93.57	-146.365	-61.032	152.184
397	3.97	-114.152	66.393	97.363	-68.97	286.442	199.935	-88.457	296.897	176.476	-46.816	-153.158	-8.669	-46.816	31.938	-8.669	0	0	0	-145.218	-19.944	45.98	-157.092	88.864	93.357	-146.401	-60.518	151.989
398	3.98	-114.764	66.169	97.609	-70.815	286.093	200.984	-90.204	296.549	177.443	-46.816	-153.158	-8.669	-46.816	31.938	-8.669	0	0	0	-145.148	-19.429	45.623	-157.559	89.316	93.007	-146.484	-60.049	151.613
399	3.99	-115.005	65.961	97.572	-72.061	285.739	201.676	-91.383	296.203	178.084	-46.816	-153.158	-8.669	-46.816	31.938	-8.669	0	0	0	-144.956	-19.385	45.343	-157.754	89.284	92.798	-146.433	-60.106	151.292
400	4	-114.802	66.085	97.25	-72.779	285.699	202.075	-92.06	296.173	178.453	-46.816	-153.158	-8.669	-46.816	31.938	-8.669	0	0	0	-144.558	-19.697	45.269	-157.591	88.883	92.864	-146.187	-60.581	151.154
401	4.01	-114.537	66.49	96.955	-73.491	285.912	202.565	-92.729	296.4	178.915	-46.816	-153.158	-8.669	-46.816	31.938	-8.669	0	0	0	-144.185	-19.907	45.28	-157.406	88.581	93.034	-145.98	-60.971	151.092
402	4.02	-114.551	66.913	96.913	-74.562	286.116	203.381	-93.737	296.623	179.688	-46.816	-153.158	-8.669	-46.816	31.938	-8.669	0	0	0	-144.082	-19.925	45.302	-157.534	88.48	93.179	-146.059	-61.141	151.051
403	4.03	-114.781	67.266	97.009	-75.88	286.233	204.361	-94.976	296.764	180.615	-46.816	-153.158	-8.669	-46.816	31.938	-8.669	0	0	0	-144.162	-19.971	45.312	-157.907	88.362	93.269	-146.318	-61.299	151.014
404	4.04	-114.949	67.539	96.962	-77.13	286.245	205.229	-96.14	296.806	181.428	-46.816	-153.158	-8.669	-46.816	31.938	-8.669	0	0	0	-144.124	-20.076	45.126	-158.229	88.186	93.139	-146.421	-61.494	150.79
405	4.05	-114.945	67.627	96.746	-78.194	286.018	206.011	-97.118	296.621	182.16	-46.816	-153.158	-8.669	-46.816	31.938	-8.669	0	0	0	-143.796	-20.172	44.696	-158.329	88.013	92.754	-146.211	-61.673	150.325
406	4.06	-114.879	67.541	96.566	-79.237	285.581	206.894	-98.069	296.231	182.992	-46.816	-153.158	-8.669	-46.816	31.938	-8.669	0	0	0	-143.27	-20.282	44.288	-158.293	87.82	92.382	-145.844	-61.867	149.88
407	4.07	-114.903	67.504	96.473	-80.48	285.203	207.858	-99.22	295.894	183.901	-46.816	-153.158	-8.669	-46.816	31.938	-8.669	0	0	0	-142.768	-20.38	44.104	-158.329	87.636	92.222	-145.579	-62.05	149.656
408	4.08	-115.058	67.707	96.369	-81.986	285.082	208.791	-100.631	295.804	184.773	-46.816	-153.158	-8.669	-46.816	31.938	-8.669	0	0	0	-142.33	-20.414	44.104	-158.46	87.513	92.233	-145.448	-62.171	149.614
409	4.09	-115.242	68.097	96.236	-83.611	285.13	209.729	-102.151	295.883	185.645	-46.816	-153.158	-8.669	-46.816	31.938	-8.669	0	0	0	-141.828	-20.44	44.177	-158.528	87.398	92.312	-145.297	-62.287	149.64
410	4.1	-115.361	68.347	96.201	-85.162	284.986	210.83	-103.584	295.784	186.675	-46.816	-153.158	-8.669	-46.816	31.938	-8.669	0	0	0	-141.297	-20.552	44.272	-158.549	87.202	92.401	-145.144	-62.484	149.688
411	4.11	-115.472	68.166	96.404	-86.611	284.363	212.205	-104.906	295.22	187.98	-46.816	-153.158	-8.669	-46.816	31.938	-8.669	0	0	0	-140.896	-20.744	44.375	-158.695	86.935	92.47	-145.136	-62.738	149.752
